<svg width="105" height="60" viewBox="0 0 105 60" fill="none" xmlns="http://www.w3.org/2000/svg">
<path d="M39.7969 28.1641H38.0508V7.9375H39.7969V28.1641ZM45.6562 28.1641H43.9102V7.9375H45.6562V28.1641ZM68.168 18.6367H62.4492V16.8672H68.168V18.6367ZM86.7422 28.1641H84.9961V7.9375H86.7422V28.1641ZM92.6016 28.1641H90.8555V7.9375H92.6016V28.1641Z" fill="black"/>
<path d="M50.4258 25V13.9961H48.4219V12.3203H50.4258V11.0195C50.4258 9.66016 50.7891 8.60938 51.5156 7.86719C52.2422 7.125 53.2695 6.75391 54.5977 6.75391C55.0977 6.75391 55.5938 6.82031 56.0859 6.95312L55.9688 8.71094C55.6016 8.64062 55.2109 8.60547 54.7969 8.60547C54.0938 8.60547 53.5508 8.8125 53.168 9.22656C52.7852 9.63281 52.5938 10.2188 52.5938 10.9844V12.3203H55.3008V13.9961H52.5938V25H50.4258Z" fill="#0B9619"/>
<path d="M77.3086 25V13.9961H75.3047V12.3203H77.3086V11.0195C77.3086 9.66016 77.6719 8.60938 78.3984 7.86719C79.125 7.125 80.1523 6.75391 81.4805 6.75391C81.9805 6.75391 82.4766 6.82031 82.9688 6.95312L82.8516 8.71094C82.4844 8.64062 82.0938 8.60547 81.6797 8.60547C80.9766 8.60547 80.4336 8.8125 80.0508 9.22656C79.668 9.63281 79.4766 10.2188 79.4766 10.9844V12.3203H82.1836V13.9961H79.4766V25H77.3086Z" fill="#2470B6"/>
<path d="M52.7969 59.1641H51.0508V38.9375H52.7969V59.1641ZM58.6562 59.1641H56.9102V38.9375H58.6562V59.1641ZM72.8594 59.1641H71.1133V38.9375H72.8594V59.1641ZM78.7188 59.1641H76.9727V38.9375H78.7188V59.1641Z" fill="black"/>
<path d="M63.4258 56V44.9961H61.4219V43.3203H63.4258V42.0195C63.4258 40.6602 63.7891 39.6094 64.5156 38.8672C65.2422 38.125 66.2695 37.7539 67.5977 37.7539C68.0977 37.7539 68.5938 37.8203 69.0859 37.9531L68.9688 39.7109C68.6016 39.6406 68.2109 39.6055 67.7969 39.6055C67.0938 39.6055 66.5508 39.8125 66.168 40.2266C65.7852 40.6328 65.5938 41.2188 65.5938 41.9844V43.3203H68.3008V44.9961H65.5938V56H63.4258Z" fill="#0B9619"/>
<line opacity="0.43" x1="30" y1="32" x2="105" y2="32" stroke="black" stroke-width="2"/>
<path d="M7.54297 39.5H5.36328V25.0508L0.992188 26.6562V24.6875L7.20312 22.3555H7.54297V39.5ZM24.582 33.1367H18.8633V31.3672H24.582V33.1367Z" fill="black"/>
<line y1="-0.5" x2="4.43094" y2="-0.5" transform="matrix(0.735931 -0.677057 0.735931 0.677057 75 4)" stroke="#2470B6"/>
<line y1="-0.5" x2="4.43094" y2="-0.5" transform="matrix(0.735931 0.677057 -0.735931 0.677057 76.7391 1)" stroke="#2470B6"/>
</svg>
