<svg width="891" height="125" viewBox="0 0 891 125" fill="none" xmlns="http://www.w3.org/2000/svg">
<g id="layers">
<g id="layers_2">
<path id="conv2d0" d="M8.36328 10.2324C8.75 10.2324 9.08789 10.1152 9.37695 9.88086C9.66602 9.64648 9.82617 9.35352 9.85742 9.00195H10.8828C10.8633 9.36523 10.7383 9.71094 10.5078 10.0391C10.2773 10.3672 9.96875 10.6289 9.58203 10.8242C9.19922 11.0195 8.79297 11.1172 8.36328 11.1172C7.5 11.1172 6.8125 10.8301 6.30078 10.2559C5.79297 9.67773 5.53906 8.88867 5.53906 7.88867V7.70703C5.53906 7.08984 5.65234 6.54102 5.87891 6.06055C6.10547 5.58008 6.42969 5.20703 6.85156 4.94141C7.27734 4.67578 7.7793 4.54297 8.35742 4.54297C9.06836 4.54297 9.6582 4.75586 10.127 5.18164C10.5996 5.60742 10.8516 6.16016 10.8828 6.83984H9.85742C9.82617 6.42969 9.66992 6.09375 9.38867 5.83203C9.11133 5.56641 8.76758 5.43359 8.35742 5.43359C7.80664 5.43359 7.37891 5.63281 7.07422 6.03125C6.77344 6.42578 6.62305 6.99805 6.62305 7.74805V7.95312C6.62305 8.68359 6.77344 9.24609 7.07422 9.64062C7.375 10.0352 7.80469 10.2324 8.36328 10.2324ZM11.8145 7.77148C11.8145 7.15039 11.9355 6.5918 12.1777 6.0957C12.4238 5.59961 12.7637 5.2168 13.1973 4.94727C13.6348 4.67773 14.1328 4.54297 14.6914 4.54297C15.5547 4.54297 16.252 4.8418 16.7832 5.43945C17.3184 6.03711 17.5859 6.83203 17.5859 7.82422V7.90039C17.5859 8.51758 17.4668 9.07227 17.2285 9.56445C16.9941 10.0527 16.6562 10.4336 16.2148 10.707C15.7773 10.9805 15.2734 11.1172 14.7031 11.1172C13.8438 11.1172 13.1465 10.8184 12.6113 10.2207C12.0801 9.62305 11.8145 8.83203 11.8145 7.84766V7.77148ZM12.9043 7.90039C12.9043 8.60352 13.0664 9.16797 13.3906 9.59375C13.7188 10.0195 14.1562 10.2324 14.7031 10.2324C15.2539 10.2324 15.6914 10.0176 16.0156 9.58789C16.3398 9.1543 16.502 8.54883 16.502 7.77148C16.502 7.07617 16.3359 6.51367 16.0039 6.08398C15.6758 5.65039 15.2383 5.43359 14.6914 5.43359C14.1562 5.43359 13.7246 5.64648 13.3965 6.07227C13.0684 6.49805 12.9043 7.10742 12.9043 7.90039ZM19.9707 4.66016L20.0059 5.45703C20.4902 4.84766 21.123 4.54297 21.9043 4.54297C23.2441 4.54297 23.9199 5.29883 23.9316 6.81055V11H22.8477V6.80469C22.8438 6.34766 22.7383 6.00977 22.5312 5.79102C22.3281 5.57227 22.0098 5.46289 21.5762 5.46289C21.2246 5.46289 20.916 5.55664 20.6504 5.74414C20.3848 5.93164 20.1777 6.17773 20.0293 6.48242V11H18.9453V4.66016H19.9707ZM27.6582 9.5293L29.2285 4.66016H30.3359L28.0625 11H27.2363L24.9395 4.66016H26.0469L27.6582 9.5293ZM36.8574 11H31.2676V10.2207L34.2207 6.93945C34.6582 6.44336 34.959 6.04102 35.123 5.73242C35.291 5.41992 35.375 5.09766 35.375 4.76562C35.375 4.32031 35.2402 3.95508 34.9707 3.66992C34.7012 3.38477 34.3418 3.24219 33.8926 3.24219C33.3535 3.24219 32.9336 3.39648 32.6328 3.70508C32.3359 4.00977 32.1875 4.43555 32.1875 4.98242H31.1035C31.1035 4.19727 31.3555 3.5625 31.8594 3.07812C32.3672 2.59375 33.0449 2.35156 33.8926 2.35156C34.6855 2.35156 35.3125 2.56055 35.7734 2.97852C36.2344 3.39258 36.4648 3.94531 36.4648 4.63672C36.4648 5.47656 35.9297 6.47656 34.8594 7.63672L32.5742 10.1152H36.8574V11ZM37.8535 7.77734C37.8535 6.80469 38.084 6.02344 38.5449 5.43359C39.0059 4.83984 39.6094 4.54297 40.3555 4.54297C41.0977 4.54297 41.6855 4.79688 42.1191 5.30469V2H43.2031V11H42.207L42.1543 10.3203C41.7207 10.8516 41.1172 11.1172 40.3438 11.1172C39.6094 11.1172 39.0098 10.8164 38.5449 10.2148C38.084 9.61328 37.8535 8.82812 37.8535 7.85938V7.77734ZM38.9375 7.90039C38.9375 8.61914 39.0859 9.18164 39.3828 9.58789C39.6797 9.99414 40.0898 10.1973 40.6133 10.1973C41.3008 10.1973 41.8027 9.88867 42.1191 9.27148V6.35938C41.7949 5.76172 41.2969 5.46289 40.625 5.46289C40.0938 5.46289 39.6797 5.66797 39.3828 6.07812C39.0859 6.48828 38.9375 7.0957 38.9375 7.90039ZM50.1289 7.36133C50.1289 8.63086 49.9121 9.57422 49.4785 10.1914C49.0449 10.8086 48.3672 11.1172 47.4453 11.1172C46.5352 11.1172 45.8613 10.8164 45.4238 10.2148C44.9863 9.60938 44.7598 8.70703 44.7441 7.50781V6.06055C44.7441 4.80664 44.9609 3.875 45.3945 3.26562C45.8281 2.65625 46.5078 2.35156 47.4336 2.35156C48.3516 2.35156 49.0273 2.64648 49.4609 3.23633C49.8945 3.82227 50.1172 4.72852 50.1289 5.95508V7.36133ZM49.0449 5.87891C49.0449 4.96094 48.916 4.29297 48.6582 3.875C48.4004 3.45312 47.9922 3.24219 47.4336 3.24219C46.8789 3.24219 46.4746 3.45117 46.2207 3.86914C45.9668 4.28711 45.8359 4.92969 45.8281 5.79688V7.53125C45.8281 8.45312 45.9609 9.13477 46.2266 9.57617C46.4961 10.0137 46.9023 10.2324 47.4453 10.2324C47.9805 10.2324 48.377 10.0254 48.6348 9.61133C48.8965 9.19727 49.0332 8.54492 49.0449 7.6543V5.87891Z" fill="black"/>
<line id="Line 1" y1="15.5" x2="173" y2="15.5" stroke="black"/>
<path id="conv2d1" d="M186.363 10.2324C186.75 10.2324 187.088 10.1152 187.377 9.88086C187.666 9.64648 187.826 9.35352 187.857 9.00195H188.883C188.863 9.36523 188.738 9.71094 188.508 10.0391C188.277 10.3672 187.969 10.6289 187.582 10.8242C187.199 11.0195 186.793 11.1172 186.363 11.1172C185.5 11.1172 184.812 10.8301 184.301 10.2559C183.793 9.67773 183.539 8.88867 183.539 7.88867V7.70703C183.539 7.08984 183.652 6.54102 183.879 6.06055C184.105 5.58008 184.43 5.20703 184.852 4.94141C185.277 4.67578 185.779 4.54297 186.357 4.54297C187.068 4.54297 187.658 4.75586 188.127 5.18164C188.6 5.60742 188.852 6.16016 188.883 6.83984H187.857C187.826 6.42969 187.67 6.09375 187.389 5.83203C187.111 5.56641 186.768 5.43359 186.357 5.43359C185.807 5.43359 185.379 5.63281 185.074 6.03125C184.773 6.42578 184.623 6.99805 184.623 7.74805V7.95312C184.623 8.68359 184.773 9.24609 185.074 9.64062C185.375 10.0352 185.805 10.2324 186.363 10.2324ZM189.814 7.77148C189.814 7.15039 189.936 6.5918 190.178 6.0957C190.424 5.59961 190.764 5.2168 191.197 4.94727C191.635 4.67773 192.133 4.54297 192.691 4.54297C193.555 4.54297 194.252 4.8418 194.783 5.43945C195.318 6.03711 195.586 6.83203 195.586 7.82422V7.90039C195.586 8.51758 195.467 9.07227 195.229 9.56445C194.994 10.0527 194.656 10.4336 194.215 10.707C193.777 10.9805 193.273 11.1172 192.703 11.1172C191.844 11.1172 191.146 10.8184 190.611 10.2207C190.08 9.62305 189.814 8.83203 189.814 7.84766V7.77148ZM190.904 7.90039C190.904 8.60352 191.066 9.16797 191.391 9.59375C191.719 10.0195 192.156 10.2324 192.703 10.2324C193.254 10.2324 193.691 10.0176 194.016 9.58789C194.34 9.1543 194.502 8.54883 194.502 7.77148C194.502 7.07617 194.336 6.51367 194.004 6.08398C193.676 5.65039 193.238 5.43359 192.691 5.43359C192.156 5.43359 191.725 5.64648 191.396 6.07227C191.068 6.49805 190.904 7.10742 190.904 7.90039ZM197.971 4.66016L198.006 5.45703C198.49 4.84766 199.123 4.54297 199.904 4.54297C201.244 4.54297 201.92 5.29883 201.932 6.81055V11H200.848V6.80469C200.844 6.34766 200.738 6.00977 200.531 5.79102C200.328 5.57227 200.01 5.46289 199.576 5.46289C199.225 5.46289 198.916 5.55664 198.65 5.74414C198.385 5.93164 198.178 6.17773 198.029 6.48242V11H196.945V4.66016H197.971ZM205.658 9.5293L207.229 4.66016H208.336L206.062 11H205.236L202.939 4.66016H204.047L205.658 9.5293ZM214.857 11H209.268V10.2207L212.221 6.93945C212.658 6.44336 212.959 6.04102 213.123 5.73242C213.291 5.41992 213.375 5.09766 213.375 4.76562C213.375 4.32031 213.24 3.95508 212.971 3.66992C212.701 3.38477 212.342 3.24219 211.893 3.24219C211.354 3.24219 210.934 3.39648 210.633 3.70508C210.336 4.00977 210.188 4.43555 210.188 4.98242H209.104C209.104 4.19727 209.355 3.5625 209.859 3.07812C210.367 2.59375 211.045 2.35156 211.893 2.35156C212.686 2.35156 213.312 2.56055 213.773 2.97852C214.234 3.39258 214.465 3.94531 214.465 4.63672C214.465 5.47656 213.93 6.47656 212.859 7.63672L210.574 10.1152H214.857V11ZM215.854 7.77734C215.854 6.80469 216.084 6.02344 216.545 5.43359C217.006 4.83984 217.609 4.54297 218.355 4.54297C219.098 4.54297 219.686 4.79688 220.119 5.30469V2H221.203V11H220.207L220.154 10.3203C219.721 10.8516 219.117 11.1172 218.344 11.1172C217.609 11.1172 217.01 10.8164 216.545 10.2148C216.084 9.61328 215.854 8.82812 215.854 7.85938V7.77734ZM216.938 7.90039C216.938 8.61914 217.086 9.18164 217.383 9.58789C217.68 9.99414 218.09 10.1973 218.613 10.1973C219.301 10.1973 219.803 9.88867 220.119 9.27148V6.35938C219.795 5.76172 219.297 5.46289 218.625 5.46289C218.094 5.46289 217.68 5.66797 217.383 6.07812C217.086 6.48828 216.938 7.0957 216.938 7.90039ZM226.342 11H225.252V3.77539L223.066 4.57812V3.59375L226.172 2.42773H226.342V11Z" fill="black"/>
<line id="Line 2" x1="178" y1="15.5" x2="351" y2="15.5" stroke="black"/>
<path id="conv2d2" d="M366.363 10.2324C366.75 10.2324 367.088 10.1152 367.377 9.88086C367.666 9.64648 367.826 9.35352 367.857 9.00195H368.883C368.863 9.36523 368.738 9.71094 368.508 10.0391C368.277 10.3672 367.969 10.6289 367.582 10.8242C367.199 11.0195 366.793 11.1172 366.363 11.1172C365.5 11.1172 364.812 10.8301 364.301 10.2559C363.793 9.67773 363.539 8.88867 363.539 7.88867V7.70703C363.539 7.08984 363.652 6.54102 363.879 6.06055C364.105 5.58008 364.43 5.20703 364.852 4.94141C365.277 4.67578 365.779 4.54297 366.357 4.54297C367.068 4.54297 367.658 4.75586 368.127 5.18164C368.6 5.60742 368.852 6.16016 368.883 6.83984H367.857C367.826 6.42969 367.67 6.09375 367.389 5.83203C367.111 5.56641 366.768 5.43359 366.357 5.43359C365.807 5.43359 365.379 5.63281 365.074 6.03125C364.773 6.42578 364.623 6.99805 364.623 7.74805V7.95312C364.623 8.68359 364.773 9.24609 365.074 9.64062C365.375 10.0352 365.805 10.2324 366.363 10.2324ZM369.814 7.77148C369.814 7.15039 369.936 6.5918 370.178 6.0957C370.424 5.59961 370.764 5.2168 371.197 4.94727C371.635 4.67773 372.133 4.54297 372.691 4.54297C373.555 4.54297 374.252 4.8418 374.783 5.43945C375.318 6.03711 375.586 6.83203 375.586 7.82422V7.90039C375.586 8.51758 375.467 9.07227 375.229 9.56445C374.994 10.0527 374.656 10.4336 374.215 10.707C373.777 10.9805 373.273 11.1172 372.703 11.1172C371.844 11.1172 371.146 10.8184 370.611 10.2207C370.08 9.62305 369.814 8.83203 369.814 7.84766V7.77148ZM370.904 7.90039C370.904 8.60352 371.066 9.16797 371.391 9.59375C371.719 10.0195 372.156 10.2324 372.703 10.2324C373.254 10.2324 373.691 10.0176 374.016 9.58789C374.34 9.1543 374.502 8.54883 374.502 7.77148C374.502 7.07617 374.336 6.51367 374.004 6.08398C373.676 5.65039 373.238 5.43359 372.691 5.43359C372.156 5.43359 371.725 5.64648 371.396 6.07227C371.068 6.49805 370.904 7.10742 370.904 7.90039ZM377.971 4.66016L378.006 5.45703C378.49 4.84766 379.123 4.54297 379.904 4.54297C381.244 4.54297 381.92 5.29883 381.932 6.81055V11H380.848V6.80469C380.844 6.34766 380.738 6.00977 380.531 5.79102C380.328 5.57227 380.01 5.46289 379.576 5.46289C379.225 5.46289 378.916 5.55664 378.65 5.74414C378.385 5.93164 378.178 6.17773 378.029 6.48242V11H376.945V4.66016H377.971ZM385.658 9.5293L387.229 4.66016H388.336L386.062 11H385.236L382.939 4.66016H384.047L385.658 9.5293ZM394.857 11H389.268V10.2207L392.221 6.93945C392.658 6.44336 392.959 6.04102 393.123 5.73242C393.291 5.41992 393.375 5.09766 393.375 4.76562C393.375 4.32031 393.24 3.95508 392.971 3.66992C392.701 3.38477 392.342 3.24219 391.893 3.24219C391.354 3.24219 390.934 3.39648 390.633 3.70508C390.336 4.00977 390.188 4.43555 390.188 4.98242H389.104C389.104 4.19727 389.355 3.5625 389.859 3.07812C390.367 2.59375 391.045 2.35156 391.893 2.35156C392.686 2.35156 393.312 2.56055 393.773 2.97852C394.234 3.39258 394.465 3.94531 394.465 4.63672C394.465 5.47656 393.93 6.47656 392.859 7.63672L390.574 10.1152H394.857V11ZM395.854 7.77734C395.854 6.80469 396.084 6.02344 396.545 5.43359C397.006 4.83984 397.609 4.54297 398.355 4.54297C399.098 4.54297 399.686 4.79688 400.119 5.30469V2H401.203V11H400.207L400.154 10.3203C399.721 10.8516 399.117 11.1172 398.344 11.1172C397.609 11.1172 397.01 10.8164 396.545 10.2148C396.084 9.61328 395.854 8.82812 395.854 7.85938V7.77734ZM396.938 7.90039C396.938 8.61914 397.086 9.18164 397.383 9.58789C397.68 9.99414 398.09 10.1973 398.613 10.1973C399.301 10.1973 399.803 9.88867 400.119 9.27148V6.35938C399.795 5.76172 399.297 5.46289 398.625 5.46289C398.094 5.46289 397.68 5.66797 397.383 6.07812C397.086 6.48828 396.938 7.0957 396.938 7.90039ZM408.369 11H402.779V10.2207L405.732 6.93945C406.17 6.44336 406.471 6.04102 406.635 5.73242C406.803 5.41992 406.887 5.09766 406.887 4.76562C406.887 4.32031 406.752 3.95508 406.482 3.66992C406.213 3.38477 405.854 3.24219 405.404 3.24219C404.865 3.24219 404.445 3.39648 404.145 3.70508C403.848 4.00977 403.699 4.43555 403.699 4.98242H402.615C402.615 4.19727 402.867 3.5625 403.371 3.07812C403.879 2.59375 404.557 2.35156 405.404 2.35156C406.197 2.35156 406.824 2.56055 407.285 2.97852C407.746 3.39258 407.977 3.94531 407.977 4.63672C407.977 5.47656 407.441 6.47656 406.371 7.63672L404.086 10.1152H408.369V11Z" fill="black"/>
<line id="Line 3" x1="358" y1="15.5" x2="531" y2="15.5" stroke="black"/>
<path id="3a" d="M545.285 6.20703H546.1C546.611 6.19922 547.014 6.06445 547.307 5.80273C547.6 5.54102 547.746 5.1875 547.746 4.74219C547.746 3.74219 547.248 3.24219 546.252 3.24219C545.783 3.24219 545.408 3.37695 545.127 3.64648C544.85 3.91211 544.711 4.26562 544.711 4.70703H543.627C543.627 4.03125 543.873 3.4707 544.365 3.02539C544.861 2.57617 545.49 2.35156 546.252 2.35156C547.057 2.35156 547.688 2.56445 548.145 2.99023C548.602 3.41602 548.83 4.00781 548.83 4.76562C548.83 5.13672 548.709 5.49609 548.467 5.84375C548.229 6.19141 547.902 6.45117 547.488 6.62305C547.957 6.77148 548.318 7.01758 548.572 7.36133C548.83 7.70508 548.959 8.125 548.959 8.62109C548.959 9.38672 548.709 9.99414 548.209 10.4434C547.709 10.8926 547.059 11.1172 546.258 11.1172C545.457 11.1172 544.805 10.9004 544.301 10.4668C543.801 10.0332 543.551 9.46094 543.551 8.75H544.641C544.641 9.19922 544.787 9.55859 545.08 9.82812C545.373 10.0977 545.766 10.2324 546.258 10.2324C546.781 10.2324 547.182 10.0957 547.459 9.82227C547.736 9.54883 547.875 9.15625 547.875 8.64453C547.875 8.14844 547.723 7.76758 547.418 7.50195C547.113 7.23633 546.674 7.09961 546.1 7.0918H545.285V6.20703ZM554.473 11C554.41 10.875 554.359 10.6523 554.32 10.332C553.816 10.8555 553.215 11.1172 552.516 11.1172C551.891 11.1172 551.377 10.9414 550.975 10.5898C550.576 10.2344 550.377 9.78516 550.377 9.24219C550.377 8.58203 550.627 8.07031 551.127 7.70703C551.631 7.33984 552.338 7.15625 553.248 7.15625H554.303V6.6582C554.303 6.2793 554.189 5.97852 553.963 5.75586C553.736 5.5293 553.402 5.41602 552.961 5.41602C552.574 5.41602 552.25 5.51367 551.988 5.70898C551.727 5.9043 551.596 6.14062 551.596 6.41797H550.506C550.506 6.10156 550.617 5.79688 550.84 5.50391C551.066 5.20703 551.371 4.97266 551.754 4.80078C552.141 4.62891 552.564 4.54297 553.025 4.54297C553.756 4.54297 554.328 4.72656 554.742 5.09375C555.156 5.45703 555.371 5.95898 555.387 6.59961V9.51758C555.387 10.0996 555.461 10.5625 555.609 10.9062V11H554.473ZM552.674 10.1738C553.014 10.1738 553.336 10.0859 553.641 9.91016C553.945 9.73438 554.166 9.50586 554.303 9.22461V7.92383H553.453C552.125 7.92383 551.461 8.3125 551.461 9.08984C551.461 9.42969 551.574 9.69531 551.801 9.88672C552.027 10.0781 552.318 10.1738 552.674 10.1738Z" fill="black"/>
<line id="Line 4" x1="538" y1="15.5" x2="711" y2="15.5" stroke="black"/>
<path id="3b" d="M725.285 6.20703H726.1C726.611 6.19922 727.014 6.06445 727.307 5.80273C727.6 5.54102 727.746 5.1875 727.746 4.74219C727.746 3.74219 727.248 3.24219 726.252 3.24219C725.783 3.24219 725.408 3.37695 725.127 3.64648C724.85 3.91211 724.711 4.26562 724.711 4.70703H723.627C723.627 4.03125 723.873 3.4707 724.365 3.02539C724.861 2.57617 725.49 2.35156 726.252 2.35156C727.057 2.35156 727.688 2.56445 728.145 2.99023C728.602 3.41602 728.83 4.00781 728.83 4.76562C728.83 5.13672 728.709 5.49609 728.467 5.84375C728.229 6.19141 727.902 6.45117 727.488 6.62305C727.957 6.77148 728.318 7.01758 728.572 7.36133C728.83 7.70508 728.959 8.125 728.959 8.62109C728.959 9.38672 728.709 9.99414 728.209 10.4434C727.709 10.8926 727.059 11.1172 726.258 11.1172C725.457 11.1172 724.805 10.9004 724.301 10.4668C723.801 10.0332 723.551 9.46094 723.551 8.75H724.641C724.641 9.19922 724.787 9.55859 725.08 9.82812C725.373 10.0977 725.766 10.2324 726.258 10.2324C726.781 10.2324 727.182 10.0957 727.459 9.82227C727.736 9.54883 727.875 9.15625 727.875 8.64453C727.875 8.14844 727.723 7.76758 727.418 7.50195C727.113 7.23633 726.674 7.09961 726.1 7.0918H725.285V6.20703ZM735.926 7.90039C735.926 8.86914 735.703 9.64844 735.258 10.2383C734.812 10.8242 734.215 11.1172 733.465 11.1172C732.664 11.1172 732.045 10.834 731.607 10.2676L731.555 11H730.559V2H731.643V5.35742C732.08 4.81445 732.684 4.54297 733.453 4.54297C734.223 4.54297 734.826 4.83398 735.264 5.41602C735.705 5.99805 735.926 6.79492 735.926 7.80664V7.90039ZM734.842 7.77734C734.842 7.03906 734.699 6.46875 734.414 6.06641C734.129 5.66406 733.719 5.46289 733.184 5.46289C732.469 5.46289 731.955 5.79492 731.643 6.45898V9.20117C731.975 9.86523 732.492 10.1973 733.195 10.1973C733.715 10.1973 734.119 9.99609 734.408 9.59375C734.697 9.19141 734.842 8.58594 734.842 7.77734Z" fill="black"/>
<line id="Line 5" x1="718" y1="15.5" x2="891" y2="15.5" stroke="black"/>
<rect id="conv2d0:color contrast" y="41" width="173" height="34" fill="#C4C4C4"/>
<rect id="conv2d0:gabor filters" y="91" width="173" height="34" fill="#C4C4C4"/>
</g>
</g>
</svg>
