<svg width="1524" height="278" viewBox="0 0 1524 278" fill="none" xmlns="http://www.w3.org/2000/svg">
<g id="layers">
<g id="layers_2">
<path id="conv2d0" d="M14.1566 16.7207C14.8011 16.7207 15.3643 16.5254 15.8461 16.1348C16.3278 15.7441 16.5948 15.2559 16.6469 14.6699H18.3558C18.3233 15.2754 18.1149 15.8516 17.7308 16.3984C17.3467 16.9453 16.8324 17.3815 16.1879 17.707C15.5498 18.0326 14.8728 18.1953 14.1566 18.1953C12.7178 18.1953 11.572 17.7168 10.7191 16.7598C9.87276 15.7962 9.44958 14.4811 9.44958 12.8145V12.5117C9.44958 11.4831 9.63839 10.5684 10.016 9.76758C10.3936 8.9668 10.934 8.34505 11.6371 7.90234C12.3467 7.45964 13.1833 7.23828 14.1469 7.23828C15.3317 7.23828 16.3148 7.5931 17.0961 8.30273C17.8838 9.01237 18.3038 9.93359 18.3558 11.0664H16.6469C16.5948 10.3828 16.3344 9.82292 15.8656 9.38672C15.4034 8.94401 14.8304 8.72266 14.1469 8.72266C13.2289 8.72266 12.516 9.05469 12.0082 9.71875C11.5069 10.3763 11.2562 11.3301 11.2562 12.5801V12.9219C11.2562 14.1393 11.5069 15.0768 12.0082 15.7344C12.5095 16.3919 13.2256 16.7207 14.1566 16.7207ZM19.9086 12.6191C19.9086 11.584 20.1104 10.653 20.514 9.82617C20.9242 8.99935 21.4906 8.36133 22.2133 7.91211C22.9424 7.46289 23.7725 7.23828 24.7035 7.23828C26.1423 7.23828 27.3044 7.73633 28.1898 8.73242C29.0817 9.72852 29.5277 11.0534 29.5277 12.707V12.834C29.5277 13.8626 29.3291 14.7871 28.932 15.6074C28.5414 16.4212 27.9782 17.056 27.2426 17.5117C26.5134 17.9674 25.6735 18.1953 24.723 18.1953C23.2907 18.1953 22.1286 17.6973 21.2367 16.7012C20.3513 15.7051 19.9086 14.3867 19.9086 12.7461V12.6191ZM21.725 12.834C21.725 14.0059 21.9952 14.9466 22.5355 15.6562C23.0824 16.3659 23.8116 16.7207 24.723 16.7207C25.641 16.7207 26.3702 16.3626 26.9105 15.6465C27.4509 14.9238 27.7211 13.9147 27.7211 12.6191C27.7211 11.4603 27.4444 10.5228 26.891 9.80664C26.3441 9.08398 25.6149 8.72266 24.7035 8.72266C23.8116 8.72266 23.0922 9.07747 22.5453 9.78711C21.9984 10.4967 21.725 11.5124 21.725 12.834ZM33.5023 7.43359L33.5609 8.76172C34.3682 7.74609 35.4229 7.23828 36.725 7.23828C38.958 7.23828 40.0844 8.49805 40.1039 11.0176V18H38.2972V11.0078C38.2907 10.2461 38.1149 9.68294 37.7699 9.31836C37.4314 8.95378 36.9008 8.77148 36.1781 8.77148C35.5922 8.77148 35.0778 8.92773 34.6351 9.24023C34.1924 9.55273 33.8474 9.96289 33.6 10.4707V18H31.7933V7.43359H33.5023ZM46.3148 15.5488L48.932 7.43359H50.7777L46.9886 18H45.6117L41.7836 7.43359H43.6293L46.3148 15.5488ZM61.6469 18H52.3304V16.7012L57.2523 11.2324C57.9815 10.4056 58.4828 9.73503 58.7562 9.2207C59.0362 8.69987 59.1761 8.16276 59.1761 7.60938C59.1761 6.86719 58.9515 6.25846 58.5023 5.7832C58.0531 5.30794 57.4541 5.07031 56.7054 5.07031C55.807 5.07031 55.1071 5.32747 54.6058 5.8418C54.111 6.34961 53.8636 7.05924 53.8636 7.9707H52.057C52.057 6.66211 52.4769 5.60417 53.3168 4.79688C54.1631 3.98958 55.2927 3.58594 56.7054 3.58594C58.0271 3.58594 59.072 3.93424 59.8402 4.63086C60.6084 5.32096 60.9926 6.24219 60.9926 7.39453C60.9926 8.79427 60.1006 10.4609 58.3168 12.3945L54.5082 16.5254H61.6469V18ZM63.307 12.6289C63.307 11.0078 63.6911 9.70573 64.4594 8.72266C65.2276 7.73307 66.2334 7.23828 67.4769 7.23828C68.7139 7.23828 69.6937 7.66146 70.4164 8.50781V3H72.223V18H70.5629L70.475 16.8672C69.7523 17.7526 68.7465 18.1953 67.4574 18.1953C66.2334 18.1953 65.2341 17.694 64.4594 16.6914C63.6911 15.6888 63.307 14.3802 63.307 12.7656V12.6289ZM65.1136 12.834C65.1136 14.0319 65.361 14.9694 65.8558 15.6465C66.3506 16.3236 67.0342 16.6621 67.9066 16.6621C69.0524 16.6621 69.889 16.1478 70.4164 15.1191V10.2656C69.876 9.26953 69.0459 8.77148 67.9261 8.77148C67.0407 8.77148 66.3506 9.11328 65.8558 9.79688C65.361 10.4805 65.1136 11.4928 65.1136 12.834ZM83.766 11.9355C83.766 14.0514 83.4047 15.6237 82.682 16.6523C81.9594 17.681 80.8298 18.1953 79.2933 18.1953C77.7764 18.1953 76.6534 17.694 75.9242 16.6914C75.195 15.6823 74.8174 14.1784 74.7914 12.1797V9.76758C74.7914 7.67773 75.1527 6.125 75.8754 5.10938C76.598 4.09375 77.7308 3.58594 79.2738 3.58594C80.8038 3.58594 81.9301 4.07747 82.6527 5.06055C83.3754 6.03711 83.7465 7.54753 83.766 9.5918V11.9355ZM81.9594 9.46484C81.9594 7.9349 81.7445 6.82161 81.3148 6.125C80.8851 5.42188 80.2048 5.07031 79.2738 5.07031C78.3493 5.07031 77.6755 5.41862 77.2523 6.11523C76.8291 6.81185 76.611 7.88281 76.598 9.32812V12.2188C76.598 13.7552 76.8194 14.8913 77.2621 15.627C77.7113 16.3561 78.3884 16.7207 79.2933 16.7207C80.1853 16.7207 80.8461 16.3757 81.2758 15.6855C81.712 14.9954 81.9398 13.9082 81.9594 12.4238V9.46484Z" fill="black"/>
<line id="Line 1" y1="26.8636" x2="295.869" y2="26.8636" stroke="black"/>
<path id="conv2d1" d="M318.577 16.7207C319.222 16.7207 319.785 16.5254 320.267 16.1348C320.748 15.7441 321.015 15.2559 321.067 14.6699H322.776C322.744 15.2754 322.535 15.8516 322.151 16.3984C321.767 16.9453 321.253 17.3815 320.608 17.707C319.97 18.0326 319.293 18.1953 318.577 18.1953C317.138 18.1953 315.992 17.7168 315.14 16.7598C314.293 15.7962 313.87 14.4811 313.87 12.8145V12.5117C313.87 11.4831 314.059 10.5684 314.436 9.76758C314.814 8.9668 315.354 8.34505 316.058 7.90234C316.767 7.45964 317.604 7.23828 318.567 7.23828C319.752 7.23828 320.735 7.5931 321.517 8.30273C322.304 9.01237 322.724 9.93359 322.776 11.0664H321.067C321.015 10.3828 320.755 9.82292 320.286 9.38672C319.824 8.94401 319.251 8.72266 318.567 8.72266C317.649 8.72266 316.936 9.05469 316.429 9.71875C315.927 10.3763 315.677 11.3301 315.677 12.5801V12.9219C315.677 14.1393 315.927 15.0768 316.429 15.7344C316.93 16.3919 317.646 16.7207 318.577 16.7207ZM324.329 12.6191C324.329 11.584 324.531 10.653 324.934 9.82617C325.345 8.99935 325.911 8.36133 326.634 7.91211C327.363 7.46289 328.193 7.23828 329.124 7.23828C330.563 7.23828 331.725 7.73633 332.61 8.73242C333.502 9.72852 333.948 11.0534 333.948 12.707V12.834C333.948 13.8626 333.75 14.7871 333.352 15.6074C332.962 16.4212 332.399 17.056 331.663 17.5117C330.934 17.9674 330.094 18.1953 329.143 18.1953C327.711 18.1953 326.549 17.6973 325.657 16.7012C324.772 15.7051 324.329 14.3867 324.329 12.7461V12.6191ZM326.145 12.834C326.145 14.0059 326.416 14.9466 326.956 15.6562C327.503 16.3659 328.232 16.7207 329.143 16.7207C330.061 16.7207 330.791 16.3626 331.331 15.6465C331.871 14.9238 332.142 13.9147 332.142 12.6191C332.142 11.4603 331.865 10.5228 331.311 9.80664C330.765 9.08398 330.035 8.72266 329.124 8.72266C328.232 8.72266 327.513 9.07747 326.966 9.78711C326.419 10.4967 326.145 11.5124 326.145 12.834ZM337.923 7.43359L337.981 8.76172C338.789 7.74609 339.843 7.23828 341.145 7.23828C343.378 7.23828 344.505 8.49805 344.524 11.0176V18H342.718V11.0078C342.711 10.2461 342.535 9.68294 342.19 9.31836C341.852 8.95378 341.321 8.77148 340.599 8.77148C340.013 8.77148 339.498 8.92773 339.056 9.24023C338.613 9.55273 338.268 9.96289 338.02 10.4707V18H336.214V7.43359H337.923ZM350.735 15.5488L353.352 7.43359H355.198L351.409 18H350.032L346.204 7.43359H348.05L350.735 15.5488ZM366.067 18H356.751V16.7012L361.673 11.2324C362.402 10.4056 362.903 9.73503 363.177 9.2207C363.457 8.69987 363.597 8.16276 363.597 7.60938C363.597 6.86719 363.372 6.25846 362.923 5.7832C362.474 5.30794 361.875 5.07031 361.126 5.07031C360.227 5.07031 359.528 5.32747 359.026 5.8418C358.531 6.34961 358.284 7.05924 358.284 7.9707H356.477C356.477 6.66211 356.897 5.60417 357.737 4.79688C358.584 3.98958 359.713 3.58594 361.126 3.58594C362.447 3.58594 363.492 3.93424 364.261 4.63086C365.029 5.32096 365.413 6.24219 365.413 7.39453C365.413 8.79427 364.521 10.4609 362.737 12.3945L358.929 16.5254H366.067V18ZM367.727 12.6289C367.727 11.0078 368.112 9.70573 368.88 8.72266C369.648 7.73307 370.654 7.23828 371.897 7.23828C373.134 7.23828 374.114 7.66146 374.837 8.50781V3H376.643V18H374.983L374.895 16.8672C374.173 17.7526 373.167 18.1953 371.878 18.1953C370.654 18.1953 369.655 17.694 368.88 16.6914C368.112 15.6888 367.727 14.3802 367.727 12.7656V12.6289ZM369.534 12.834C369.534 14.0319 369.781 14.9694 370.276 15.6465C370.771 16.3236 371.455 16.6621 372.327 16.6621C373.473 16.6621 374.309 16.1478 374.837 15.1191V10.2656C374.296 9.26953 373.466 8.77148 372.347 8.77148C371.461 8.77148 370.771 9.11328 370.276 9.79688C369.781 10.4805 369.534 11.4928 369.534 12.834ZM385.208 18H383.392V5.95898L379.749 7.29688V5.65625L384.925 3.71289H385.208V18Z" fill="black"/>
<line id="Line 2" x1="304.42" y1="26.8636" x2="600.29" y2="26.8636" stroke="black"/>
<path id="conv2d2" d="M626.418 16.7207C627.062 16.7207 627.626 16.5254 628.107 16.1348C628.589 15.7441 628.856 15.2559 628.908 14.6699H630.617C630.585 15.2754 630.376 15.8516 629.992 16.3984C629.608 16.9453 629.094 17.3815 628.449 17.707C627.811 18.0326 627.134 18.1953 626.418 18.1953C624.979 18.1953 623.833 17.7168 622.98 16.7598C622.134 15.7962 621.711 14.4811 621.711 12.8145V12.5117C621.711 11.4831 621.9 10.5684 622.277 9.76758C622.655 8.9668 623.195 8.34505 623.898 7.90234C624.608 7.45964 625.445 7.23828 626.408 7.23828C627.593 7.23828 628.576 7.5931 629.357 8.30273C630.145 9.01237 630.565 9.93359 630.617 11.0664H628.908C628.856 10.3828 628.596 9.82292 628.127 9.38672C627.665 8.94401 627.092 8.72266 626.408 8.72266C625.49 8.72266 624.777 9.05469 624.27 9.71875C623.768 10.3763 623.518 11.3301 623.518 12.5801V12.9219C623.518 14.1393 623.768 15.0768 624.27 15.7344C624.771 16.3919 625.487 16.7207 626.418 16.7207ZM632.17 12.6191C632.17 11.584 632.372 10.653 632.775 9.82617C633.186 8.99935 633.752 8.36133 634.475 7.91211C635.204 7.46289 636.034 7.23828 636.965 7.23828C638.404 7.23828 639.566 7.73633 640.451 8.73242C641.343 9.72852 641.789 11.0534 641.789 12.707V12.834C641.789 13.8626 641.59 14.7871 641.193 15.6074C640.803 16.4212 640.24 17.056 639.504 17.5117C638.775 17.9674 637.935 18.1953 636.984 18.1953C635.552 18.1953 634.39 17.6973 633.498 16.7012C632.613 15.7051 632.17 14.3867 632.17 12.7461V12.6191ZM633.986 12.834C633.986 14.0059 634.257 14.9466 634.797 15.6562C635.344 16.3659 636.073 16.7207 636.984 16.7207C637.902 16.7207 638.632 16.3626 639.172 15.6465C639.712 14.9238 639.982 13.9147 639.982 12.6191C639.982 11.4603 639.706 10.5228 639.152 9.80664C638.605 9.08398 637.876 8.72266 636.965 8.72266C636.073 8.72266 635.354 9.07747 634.807 9.78711C634.26 10.4967 633.986 11.5124 633.986 12.834ZM645.764 7.43359L645.822 8.76172C646.63 7.74609 647.684 7.23828 648.986 7.23828C651.219 7.23828 652.346 8.49805 652.365 11.0176V18H650.559V11.0078C650.552 10.2461 650.376 9.68294 650.031 9.31836C649.693 8.95378 649.162 8.77148 648.439 8.77148C647.854 8.77148 647.339 8.92773 646.896 9.24023C646.454 9.55273 646.109 9.96289 645.861 10.4707V18H644.055V7.43359H645.764ZM658.576 15.5488L661.193 7.43359H663.039L659.25 18H657.873L654.045 7.43359H655.891L658.576 15.5488ZM673.908 18H664.592V16.7012L669.514 11.2324C670.243 10.4056 670.744 9.73503 671.018 9.2207C671.298 8.69987 671.438 8.16276 671.438 7.60938C671.438 6.86719 671.213 6.25846 670.764 5.7832C670.314 5.30794 669.715 5.07031 668.967 5.07031C668.068 5.07031 667.368 5.32747 666.867 5.8418C666.372 6.34961 666.125 7.05924 666.125 7.9707H664.318C664.318 6.66211 664.738 5.60417 665.578 4.79688C666.424 3.98958 667.554 3.58594 668.967 3.58594C670.288 3.58594 671.333 3.93424 672.102 4.63086C672.87 5.32096 673.254 6.24219 673.254 7.39453C673.254 8.79427 672.362 10.4609 670.578 12.3945L666.77 16.5254H673.908V18ZM675.568 12.6289C675.568 11.0078 675.952 9.70573 676.721 8.72266C677.489 7.73307 678.495 7.23828 679.738 7.23828C680.975 7.23828 681.955 7.66146 682.678 8.50781V3H684.484V18H682.824L682.736 16.8672C682.014 17.7526 681.008 18.1953 679.719 18.1953C678.495 18.1953 677.495 17.694 676.721 16.6914C675.952 15.6888 675.568 14.3802 675.568 12.7656V12.6289ZM677.375 12.834C677.375 14.0319 677.622 14.9694 678.117 15.6465C678.612 16.3236 679.296 16.6621 680.168 16.6621C681.314 16.6621 682.15 16.1478 682.678 15.1191V10.2656C682.137 9.26953 681.307 8.77148 680.188 8.77148C679.302 8.77148 678.612 9.11328 678.117 9.79688C677.622 10.4805 677.375 11.4928 677.375 12.834ZM696.428 18H687.111V16.7012L692.033 11.2324C692.762 10.4056 693.264 9.73503 693.537 9.2207C693.817 8.69987 693.957 8.16276 693.957 7.60938C693.957 6.86719 693.732 6.25846 693.283 5.7832C692.834 5.30794 692.235 5.07031 691.486 5.07031C690.588 5.07031 689.888 5.32747 689.387 5.8418C688.892 6.34961 688.645 7.05924 688.645 7.9707H686.838C686.838 6.66211 687.258 5.60417 688.098 4.79688C688.944 3.98958 690.074 3.58594 691.486 3.58594C692.808 3.58594 693.853 3.93424 694.621 4.63086C695.389 5.32096 695.773 6.24219 695.773 7.39453C695.773 8.79427 694.882 10.4609 693.098 12.3945L689.289 16.5254H696.428V18Z" fill="black"/>
<line id="Line 3" x1="612.261" y1="26.8636" x2="908.131" y2="26.8636" stroke="black"/>
<path id="3a" d="M932.462 10.0117H933.819C934.672 9.9987 935.343 9.77409 935.831 9.33789C936.319 8.90169 936.564 8.3125 936.564 7.57031C936.564 5.90365 935.733 5.07031 934.073 5.07031C933.292 5.07031 932.667 5.29492 932.198 5.74414C931.736 6.18685 931.505 6.77604 931.505 7.51172H929.698C929.698 6.38542 930.108 5.45117 930.929 4.70898C931.756 3.96029 932.804 3.58594 934.073 3.58594C935.414 3.58594 936.466 3.94076 937.228 4.65039C937.989 5.36003 938.37 6.34635 938.37 7.60938C938.37 8.22786 938.168 8.82682 937.765 9.40625C937.368 9.98568 936.824 10.4186 936.134 10.7051C936.915 10.9525 937.517 11.3626 937.94 11.9355C938.37 12.5085 938.585 13.2083 938.585 14.0352C938.585 15.3112 938.168 16.3236 937.335 17.0723C936.502 17.821 935.418 18.1953 934.083 18.1953C932.748 18.1953 931.661 17.834 930.821 17.1113C929.988 16.3887 929.571 15.4349 929.571 14.25H931.388C931.388 14.9987 931.632 15.5977 932.12 16.0469C932.608 16.4961 933.263 16.7207 934.083 16.7207C934.955 16.7207 935.623 16.4928 936.085 16.0371C936.547 15.5814 936.778 14.9271 936.778 14.0742C936.778 13.2474 936.524 12.6126 936.017 12.1699C935.509 11.7272 934.776 11.4993 933.819 11.4863H932.462V10.0117ZM947.774 18C947.67 17.7917 947.586 17.4206 947.521 16.8867C946.681 17.7591 945.678 18.1953 944.513 18.1953C943.471 18.1953 942.615 17.9023 941.944 17.3164C941.28 16.724 940.948 15.9753 940.948 15.0703C940.948 13.9701 941.365 13.1172 942.198 12.5117C943.038 11.8997 944.217 11.5938 945.733 11.5938H947.491V10.7637C947.491 10.1322 947.302 9.63086 946.925 9.25977C946.547 8.88216 945.991 8.69336 945.255 8.69336C944.61 8.69336 944.07 8.85612 943.634 9.18164C943.198 9.50716 942.98 9.90104 942.98 10.3633H941.163C941.163 9.83594 941.349 9.32812 941.72 8.83984C942.097 8.34505 942.605 7.95443 943.243 7.66797C943.888 7.38151 944.594 7.23828 945.362 7.23828C946.58 7.23828 947.534 7.54427 948.224 8.15625C948.914 8.76172 949.272 9.59831 949.298 10.666V15.5293C949.298 16.4993 949.422 17.2708 949.669 17.8438V18H947.774ZM944.776 16.623C945.343 16.623 945.88 16.4766 946.388 16.1836C946.896 15.8906 947.263 15.5098 947.491 15.041V12.873H946.075C943.862 12.873 942.755 13.5208 942.755 14.8164C942.755 15.3828 942.944 15.8255 943.321 16.1445C943.699 16.4635 944.184 16.623 944.776 16.623Z" fill="black"/>
<line id="Line 4" x1="920.102" y1="26.8636" x2="1215.97" y2="26.8636" stroke="black"/>
<path id="3b" d="M1240.3 10.0117H1241.66C1242.51 9.9987 1243.18 9.77409 1243.67 9.33789C1244.16 8.90169 1244.4 8.3125 1244.4 7.57031C1244.4 5.90365 1243.57 5.07031 1241.91 5.07031C1241.13 5.07031 1240.51 5.29492 1240.04 5.74414C1239.58 6.18685 1239.35 6.77604 1239.35 7.51172H1237.54C1237.54 6.38542 1237.95 5.45117 1238.77 4.70898C1239.6 3.96029 1240.64 3.58594 1241.91 3.58594C1243.26 3.58594 1244.31 3.94076 1245.07 4.65039C1245.83 5.36003 1246.21 6.34635 1246.21 7.60938C1246.21 8.22786 1246.01 8.82682 1245.61 9.40625C1245.21 9.98568 1244.66 10.4186 1243.97 10.7051C1244.76 10.9525 1245.36 11.3626 1245.78 11.9355C1246.21 12.5085 1246.43 13.2083 1246.43 14.0352C1246.43 15.3112 1246.01 16.3236 1245.18 17.0723C1244.34 17.821 1243.26 18.1953 1241.92 18.1953C1240.59 18.1953 1239.5 17.834 1238.66 17.1113C1237.83 16.3887 1237.41 15.4349 1237.41 14.25H1239.23C1239.23 14.9987 1239.47 15.5977 1239.96 16.0469C1240.45 16.4961 1241.1 16.7207 1241.92 16.7207C1242.8 16.7207 1243.46 16.4928 1243.93 16.0371C1244.39 15.5814 1244.62 14.9271 1244.62 14.0742C1244.62 13.2474 1244.37 12.6126 1243.86 12.1699C1243.35 11.7272 1242.62 11.4993 1241.66 11.4863H1240.3V10.0117ZM1258.04 12.834C1258.04 14.4486 1257.67 15.7474 1256.92 16.7305C1256.18 17.707 1255.19 18.1953 1253.94 18.1953C1252.6 18.1953 1251.57 17.7233 1250.84 16.7793L1250.75 18H1249.09V3H1250.9V8.5957C1251.63 7.69076 1252.63 7.23828 1253.92 7.23828C1255.2 7.23828 1256.2 7.72331 1256.93 8.69336C1257.67 9.66341 1258.04 10.9915 1258.04 12.6777V12.834ZM1256.23 12.6289C1256.23 11.3984 1255.99 10.4479 1255.52 9.77734C1255.04 9.10677 1254.36 8.77148 1253.47 8.77148C1252.28 8.77148 1251.42 9.32487 1250.9 10.4316V15.002C1251.45 16.1087 1252.31 16.6621 1253.49 16.6621C1254.35 16.6621 1255.03 16.3268 1255.51 15.6562C1255.99 14.9857 1256.23 13.9766 1256.23 12.6289Z" fill="black"/>
<line id="Line 5" x1="1227.94" y1="26.8636" x2="1523.81" y2="26.8636" stroke="black"/>
<rect id="conv2d0:gabor filters" y="47.1193" width="295.869" height="58.1477" fill="#C4C4C4"/>
<rect id="conv2d0:color contrast" y="132.631" width="295.869" height="58.1477" fill="#C4C4C4"/>
<rect id="conv2d1:hatch" x="304.42" y="47.1193" width="295.869" height="58.1477" fill="#C4C4C4"/>
<rect id="conv2d1:complex gabor" x="304.42" y="132.631" width="295.869" height="58.1477" fill="#C4C4C4"/>
<rect id="conv2d1:gabor like" x="304.42" y="219.852" width="295.869" height="58.1477" fill="#C4C4C4"/>
<rect id="conv2d2:tiny curves" x="612.261" y="45.4091" width="295.869" height="58.1477" fill="#C4C4C4"/>
<rect id="conv2d2:line" x="612.261" y="130.92" width="295.869" height="58.1477" fill="#C4C4C4"/>
<rect id="conv2d2:shifted line" x="612.261" y="218.142" width="295.869" height="58.1477" fill="#C4C4C4"/>
<rect id="mixed3a:curves" x="920.102" y="45.4091" width="295.869" height="58.1477" fill="#C4C4C4"/>
<rect id="mixed3a:angles" x="920.102" y="130.92" width="295.869" height="58.1477" fill="#C4C4C4"/>
<rect id="mixed3a:lines" x="920.102" y="218.142" width="295.869" height="58.1477" fill="#C4C4C4"/>
<rect id="mixed3b:curves" x="1227.94" y="47.1193" width="295.869" height="58.1477" fill="#C4C4C4"/>
</g>
</g>
</svg>
